# xmcd
#
# Track frame offsets: 
#        150
#        7404
#        17330
#        30879
#        49742
#        68234
#        77690
#        89321
#        103826
#        114580
#        129752
#        140295
#
# Disc length: 2013 seconds
#
# Revision: 0
# Processed by: cddbd v1.5PL3 Copyright (c) Steve Scherf et al.
# Submitted via: ExactAudioCopy v0.90b4
#
DISCID=8e07db0c
DTITLE=Blue Ridge Bluegrass - Blue Ridge Bluegrass
DYEAR=2003
DGENRE=Bluegrass
TTITLE0=Red Wing
TTITLE1=Snow On the Mountain
TTITLE2=Live and Let Live
TTITLE3=Farther Along
TTITLE4=32 Acres
TTITLE5=Just Like Heaven
TTITLE6=Life's Railway to Heaven
TTITLE7=Deepening Snow
TTITLE8=Columbus Stockade Blues
TTITLE9=Streets of Baghdad
TTITLE10=Back Away Little Heart
TTITLE11=Cuckoo Bird
EXTD=
EXTT0=
EXTT1=
EXTT2=
EXTT3=
EXTT4=
EXTT5=
EXTT6=
EXTT7=
EXTT8=
EXTT9=
EXTT10=
EXTT11=
PLAYORDER=
